<svg xmlns="http://www.w3.org/2000/svg" id="Layer_2" data-name="Layer 2" viewBox="0 0 336.44 295.98">
  <defs>
    <style>
      .cls-1 {
        font-size: 53px;
      }

      .cls-1, .cls-2 {
        fill: #fff;
      }

      .cls-3 {
        letter-spacing: -.02em;
      }

      .cls-3, .cls-4, .cls-5 {
        font-family: Montserrat-Regular, Montserrat;
      }

      .cls-6 {
        font-family: Montserrat-SemiBold, Montserrat;
        font-weight: 600;
      }

      .cls-5 {
        letter-spacing: 0em;
      }
    </style>
  </defs>
  <g id="Calque_1" data-name="Calque 1">
    <g>
      <g>
        <path class="cls-2" d="M110.23,191.69c-.54-.29-1.07-.6-1.6-.92-.53-.31-1.05-.63-1.58-.95-1.05-.63-2.08-1.29-3.1-1.97-.51-.34-1.01-.68-1.52-1.03-.93-.62-1.84-1.27-2.75-1.95-.34-.24-.68-.49-1.02-.76-.59-.45-1.18-.9-1.76-1.36-.84-.65-1.67-1.33-2.49-2.02-1.33-1.11-2.62-2.26-3.89-3.44-.3-.27-.59-.54-.88-.82-.19-.18-.37-.36-.55-.54-.19-.18-.37-.36-.56-.54-.66-.65-1.3-1.3-1.94-1.96-.64-.66-1.28-1.33-1.88-2.01-.14-.15-.28-.3-.42-.46-.15-.16-.29-.32-.43-.47-.28-.31-.56-.63-.84-.94t-.01-.02c-.55-.63-1.09-1.26-1.61-1.91-.03-.02-.05-.04-.07-.07-.12-.14-.23-.29-.35-.43-1.58.09-3.18.14-4.8.14-13.8,0-27.32-2.76-39.75-9.94v-60.17H2.49v77.01c20.15,16.28,48.3,24.56,75.62,24.56,12.57,0,24.43-1.84,35.35-5.27-.54-.28-1.08-.56-1.62-.87-.54-.29-1.08-.59-1.61-.89Z"></path>
        <path class="cls-2" d="M75.9,31.46c1.67,0,3.31.05,4.93.14.06,0,.13.01.19.01,3.3.19,6.51.56,9.62,1.12,12.98,2.29,24.29,7.63,33.24,15.38,2.03,1.76,3.94,3.65,5.72,5.65,10.42,11.7,16.41,27.39,16.41,45.6s-6.01,33.54-16.44,45.33c.57.5,1.14.97,1.73,1.42.58.46,1.17.91,1.78,1.35,1.21.88,2.45,1.71,3.74,2.5.48.3.97.59,1.46.86.49.29.98.56,1.48.83,1,.53,2.02,1.04,3.05,1.52.64.3,1.3.59,1.96.87.58.25,1.16.49,1.75.71,4.12,1.59,8.48,2.77,13.01,3.53.6.1,1.19.19,1.79.27.6.09,1.2.16,1.81.23,12.1-16.23,19.03-36.57,19.03-59.42s-6.93-43.2-19.07-59.43c-.82-1.11-1.69-2.19-2.56-3.26-1.1-1.35-2.23-2.67-3.41-3.95-9.08-9.9-20.33-17.88-33.24-23.48-3.35-1.46-6.82-2.76-10.4-3.88t-.02-.01C102.4,1.87,90.34,0,77.56,0,45.27,0,18.22,10.76,0,31.46l22.64,22.08c15.18-15.18,32.56-22.08,53.26-22.08Z"></path>
        <path class="cls-2" d="M248.61,30.16c.02.29.04.58.04.87,4.45-.8,9.5-1.22,15.21-1.22,12.5,0,26.22,2.74,39.58,8.33,7.76,3.26,16.69-.56,19.86-8.36.76-1.88,1.12-3.82,1.12-5.73,0-5.88-3.41-11.48-9.13-13.95-15.16-6.57-33.48-10.1-51.16-10.1-14.26,0-26.48,1.92-36.72,5.33,4.04,2.16,7.89,4.59,11.52,7.26,5.67,4.17,9.2,10.57,9.68,17.57Z"></path>
        <path class="cls-2" d="M221.9,56.03v-.19c-4.15-.44-8.1-1.96-11.54-4.45-6.62-4.79-13.78-8.11-21.61-10-1.64,5.19-2.45,10.66-2.45,16.29,0,17.42,6.77,29.01,17.02,37.15,2.48,1.97,5.16,3.74,8,5.34,10.04,5.67,22.04,9.25,33.95,12.24,2.68.68,5.35,1.32,8,1.95,25.18,6.02,47.85,10.92,47.85,29.44,0,14.35-12.7,25.11-42.78,25.11-1.69,0-3.38-.04-5.07-.14v9.21l-2.97,2.4c-7.2,5.82-15.46,10.78-24.45,14.77,10.36,2.3,21.42,3.57,32.49,3.57,52.99,0,78.1-26.5,78.1-57.41,0-70.93-114.54-44.16-114.54-85.28Z"></path>
        <path class="cls-2" d="M166.73,31.61c1.68-.1,3.39-.15,5.12-.15,3.92,0,7.72.25,11.41.76,2.02.27,4,.62,5.94,1.05.48.1.96.21,1.43.34.39.08.78.18,1.17.28,8.3,2.16,16.02,5.79,23.25,11.02.36.26.72.5,1.08.72.37.22.74.43,1.12.62,1.91.97,3.98,1.54,6.06,1.68.39.04.77.05,1.16.05,3.95,0,7.87-1.48,10.88-4.42l.61-.6c2.84-2.77,4.37-6.31,4.66-9.91.3-3.73-.74-7.53-3.03-10.64-.37-.5-.78-.99-1.21-1.45h-.01c-.1-.12-.22-.23-.33-.34-.11-.11-.22-.22-.34-.34h-.01c-.47-.44-.97-.86-1.5-1.25-5.13-3.78-10.7-7-16.66-9.67-3.14-1.41-6.39-2.65-9.74-3.74-11.43-3.73-24.05-5.62-37.6-5.62-12.79,0-24.85,1.87-35.92,5.36,8.72,4.54,16.71,10.19,23.76,16.88,3.12,2.95,6.02,6.08,8.7,9.37Z"></path>
        <path class="cls-2" d="M245.27,168.05v-47.39c-.65-.16-1.3-.33-1.95-.49-10.13-2.54-21.67-5.81-32-10.95v48.1c-.23.13-.45.26-.68.38-7.74,4.37-15.9,7.03-24.28,8.4-3.04.5-6.11.83-9.2,1-1.85.11-3.71.16-5.58.16-1.62,0-3.22-.05-4.81-.14-3.29-.18-6.5-.56-9.61-1.12-12.99-2.32-24.31-7.79-33.28-15.64-2.02-1.78-3.92-3.67-5.69-5.67-10.43-11.79-16.44-27.47-16.44-45.33s5.99-33.9,16.41-45.6c-9.04-7.69-20.45-12.39-33.49-13.83-12.15,16.23-19.08,36.58-19.08,59.43s6.93,43.19,19.03,59.42c1.86,2.51,3.85,4.92,5.97,7.22,9.09,9.95,20.36,17.97,33.29,23.57,3.36,1.46,6.83,2.76,10.4,3.88,10.92,3.44,22.79,5.27,35.36,5.27,10.12,0,20.35-1.13,30.25-3.39,4.41-1.01,8.75-2.23,12.99-3.69,11.93-4.08,23.02-9.91,32.39-17.48v-6.11Z"></path>
      </g>
      <text class="cls-1" transform="translate(33.15 271.07)">
        <tspan class="cls-6" x="0" y="0">CREA</tspan>
        <tspan class="cls-5" x="152" y="0">T</tspan>
        <tspan class="cls-3" x="182.42" y="0">IV</tspan>
        <tspan class="cls-4" x="233.83" y="0">E</tspan>
      </text>
      <g>
        <path class="cls-2" d="M227.35,207.85v10.67l6.09-6.1c-1.39-2.19-3.54-3.84-6.09-4.57Z"></path>
        <path class="cls-2" d="M233.75,212.92l-7.54,7.56h8.63c.17-.76.26-1.55.26-2.37,0-1.88-.49-3.65-1.35-5.19Z"></path>
        <path class="cls-2" d="M230.01,227.21c2.24-1.38,3.93-3.57,4.67-6.15h-10.71l6.04,6.15Z"></path>
        <path class="cls-2" d="M213.99,215.75c-.17.76-.26,1.55-.26,2.37,0,1.9.49,3.68,1.36,5.22l7.53-7.58h-8.63Z"></path>
        <path class="cls-2" d="M218.74,209.07c-2.2,1.38-3.87,3.55-4.6,6.11h10.68l-6.09-6.11Z"></path>
        <path class="cls-2" d="M222.05,228.53c.76.17,1.55.26,2.37.26,1.84,0,3.58-.47,5.09-1.29l-7.46-7.59v8.62Z"></path>
        <path class="cls-2" d="M221.47,228.39v-10.66l-6.08,6.12c1.39,2.18,3.54,3.82,6.08,4.54Z"></path>
        <path class="cls-2" d="M226.78,207.7c-.76-.17-1.55-.26-2.37-.26-1.87,0-3.63.48-5.16,1.33l7.53,7.56v-8.62Z"></path>
      </g>
    </g>
  </g>
</svg>